<svg width="256" height="256" viewBox="0 0 256 256" xmlns="http://www.w3.org/2000/svg">
  <defs>
    <linearGradient id="landGradient" x1="0" y1="0" x2="1" y2="1">
      <stop offset="0%" stop-color="#dff3cf"/>
      <stop offset="50%" stop-color="#95c77b"/>
      <stop offset="100%" stop-color="#4f8f46"/>
    </linearGradient>

    <linearGradient id="waterGradient" x1="0" y1="0" x2="1" y2="1">
      <stop offset="0%" stop-color="#7fd7ff"/>
      <stop offset="100%" stop-color="#1266b0"/>
    </linearGradient>

    <filter id="softShadow" x="-20%" y="-20%" width="140%" height="140%">
      <feDropShadow dx="0" dy="5" stdDeviation="5" flood-color="#000000" flood-opacity="0.25"/>
    </filter>
  </defs>

  <rect x="12" y="12" width="232" height="232" rx="36" fill="#203b2b" filter="url(#softShadow)"/>

  <path d="M32 180 C58 150, 78 145, 112 122 C151 95, 176 73, 224 56 L224 224 L32 224 Z"
        fill="url(#landGradient)"/>

  <path d="M28 76 C58 92, 78 97, 108 91 C139 85, 161 64, 226 42"
        fill="none" stroke="#e8ffd8" stroke-width="7" stroke-linecap="round" opacity="0.95"/>

  <path d="M28 104 C63 121, 89 124, 119 116 C151 108, 177 84, 226 68"
        fill="none" stroke="#e8ffd8" stroke-width="7" stroke-linecap="round" opacity="0.95"/>

  <path d="M28 133 C65 149, 93 152, 126 142 C158 132, 184 109, 226 96"
        fill="none" stroke="#e8ffd8" stroke-width="7" stroke-linecap="round" opacity="0.95"/>

  <path d="M30 163 C68 177, 101 179, 134 168 C165 158, 189 137, 225 124"
        fill="none" stroke="#e8ffd8" stroke-width="7" stroke-linecap="round" opacity="0.95"/>

  <path d="M52 42 C77 57, 97 65, 120 65 C147 65, 164 50, 206 36"
        fill="none" stroke="#f6ffe9" stroke-width="4" stroke-linecap="round" opacity="0.70"/>

  <path d="M44 202 C70 189, 99 186, 128 194 C159 203, 184 201, 215 184"
        fill="none" stroke="#2e6b2f" stroke-width="8" stroke-linecap="round" opacity="0.35"/>

  <path d="M154 30 C164 56, 153 83, 133 109 C115 132, 113 153, 129 176 C139 191, 139 207, 128 226"
        fill="none" stroke="url(#waterGradient)" stroke-width="12" stroke-linecap="round" opacity="0.95"/>

  <path d="M154 30 C164 56, 153 83, 133 109 C115 132, 113 153, 129 176 C139 191, 139 207, 128 226"
        fill="none" stroke="#d7f4ff" stroke-width="4" stroke-linecap="round" opacity="0.85"/>

  <circle cx="154" cy="30" r="8" fill="#b8ecff"/>
  <circle cx="128" cy="226" r="7" fill="#b8ecff"/>

  <text x="128" y="232" text-anchor="middle"
        font-family="Arial, Helvetica, sans-serif"
        font-size="24"
        font-weight="700"
        fill="#ffffff"
        opacity="0.92">LDI</text>
</svg>